<svg xmlns="http://www.w3.org/2000/svg" width="627.4" height="145.8">
  <path d="M341.8 127a5 5 0 01-1.5-.8l-.5-.4a32 32 0 01-8.8-13.4 16 16 0 00-1.3-3.7l-.3-1.2c0-.4-.2-1-.4-1.3-.2-.3-.4-1.3-.4-2a20.4 20.4 0 01-.2-7c.2-1.5 3-4.5 5-5.4l2.5-1.4c.7-.5 1.7-1 2.3-1.2l1.6-.7 1-.3.8-.4c.4-.5.5-.6.3-1.8a311.4 311.4 0 01-1.2-6.5c0-.6-.4-2.4-.7-4a35 35 0 01-1.3-9c-.3-.2 0-4.2.3-4.2l.2-.4c0-.4.2-.5.7-.4h.7v2.7V67l.4 1.3.6 4c.1 0 .3.8.3 1.6s.2 1.7.4 1.9l.4 1.2.3 1.6 1.2 6.8c.1 1.2.6 2 1 1.5.2-.3 1.8-.5 2.4-.3.9.3.6.7-1.1 1.5-1.5.7-2 1.2-1.5 1.5.2.1.2.4.2.7l.5 3.1.5 3c0 .1.1.7.4 1.3l.6 2.5.4 2.3.4 3.5.6 6.3c.2 1.9.3 4.8.2 6.7-.5 7-2.8 9.5-7 8zm2.9-2.5a9 9 0 001-2.9c.7-2.7.7-5.6.2-11.4l-.3-4.5c0-1-.4-2.5-1.1-6a131.8 131.8 0 01-2.1-9.9l-.8.3c-1 .8-3 1.6-3.2 1.5 0 0-.3 0-.3.2-.1.2-.6.5-1 .7l-1 .5-.7.4c-1.8.7-4.7 3.4-4.5 4.2 0 .3 0 .7-.2 1-.4.5-.2 4.8.3 6.4.2.6.4 1.4.4 2 0 .4.3 1 .4 1.2.2.2.4.8.5 1.3.3 1.6 1.1 4.2 1.4 4.6.2.2.4.8.4 1.2.1.5.4 1 .8 1.2.4.2 1 .9 1.3 1.5 1 2 2.5 4 3.6 4.8.6.4 1 .9 1 1l.5.2.6.2c.1.3 1.3.8 2 .9l.8-.6zM22 78.5c-.5-.7-.5-2.3-.2-8.5a113 113 0 000-10.8 81.8 81.8 0 00-.7-7.3l-.2-3c-.1-1.1.2-2 .8-2.1.8-.2 1.4.1 2 1.3.4.8.7 1.1 1.5 1.4l1 .6c-.1.3.9 1.2 1.3 1.2l1 .4 3 1.2c2 .8 2.4.8 5.5 1a31.4 31.4 0 009.3-.8 8 8 0 012.5-.2c.6 0 .7.6.1.5-.2 0-.3.1-.3.3 0 .4-.7.8-1.7 1l-2 .7c-2.4 1-5.2 1.3-9.5 1-3.9-.1-4.2-.2-5.7-.9l-2.5-1-1-.1v1c0 .5 0 1.8-.2 2.8-.2 1-.7 6-1 11a78 78 0 01-1 9.2c-.4.4-1.7.5-2 .1zm2-25.4c0-.3 0-.5-.2-.5-.1 0-.3.3-.3.6 0 .4.1.6.2.5.2 0 .3-.4.3-.6zm27.8 23.5c-.3-.4-.7-2-.8-3-.1-1.6.2-8.4.4-9.5.8-3 2-6 2.6-6l.2-.4c0-.2.2-.6.5-.8.5-.5.6-.5 1.2-.1.8.4.7 1.2 0 2-.3.2-.7.8-.8 1.3a36 36 0 00-1.8 12.3v4c-.4.6-1.1.8-1.5.2zm67.6 3c-.3 0-1-.3-1.4-.5-.5-.3-1.3-.5-1.8-.5-1.2 0-5.2-1.8-6-2.6-1.1-1.2-.2-1.8 1.6-1 .4.3 1.2.5 1.7.7.5 0 1 .3 1.2.5.4.3 8.6 1.1 8.8.8l1-.2c.5-.1 1.2-.4 1.7-.9.6-.6.7-.8.7-2a6 6 0 00-.3-2l-.3-1.2c0-.1-.4-.7-1-1.3l-.8-1.2c0-.2-1.2-2-1.5-2.2-.2-.1-.3-.3-.3-.5s-.2-.5-1.3-1.8c-2-2.4-2.8-5.6-1.8-7.1.2-.4 1-1.1 1.5-1.5.6-.4 1.2-1 1.3-1.3.2-.3.6-.5.9-.6.3 0 .5-.1.5-.2 0-.3 1.6-1.2 2.7-1.5h2.6c1.7 0 2 .1 2.7.8.7.7.7.8.3.9-.2 0-.4.3-.4.5s-.5.3-2.2.2c-1.8 0-2.4 0-3.3.4a6 6 0 01-1.2.4c-.1 0-1 .7-1.8 1.5-1.6 1.4-1.6 1.4-1.6 2.4.1 1.2 1.4 3.4 3 5 .5.5 1 1.2 1.1 1.5 0 .4.3.6.4.7.4 0 1.8 1.8 1.8 2.2 0 .1.1.4.3.5.2.2.7 1 1 2 .5 1.2.7 1.8.6 3.2-.1 1.8-.8 3.4-1.7 4a8 8 0 01-3.2 1.6c-.4 0-.8 0-1 .2-.3.3-3.7.4-4.5.1zm-59-4.2c-.2-.8.2-2 1-3.2.5-.6.9-1.1.9-1.3l.5-.6c.3-.2.8-.8 1-1.3.4-.5.8-1 1-1 .3 0 .5-.2.6-.3l1.1-1.3c.6-.6 1.2-1.1 1.2-1.3l.4-.3c.2 0 .3-.3.4-.4 0-.4 1-1.4 1.5-1.4.1 0 .2 0 .2-.2 0-.1.7-.9 1.6-1.6 1.5-1.3 1.5-1.3 1.2-2.1l-.5-1.3a19 19 0 01-1.8-4c0-.3-.1-.5-.3-.5-.2-.1-.4-.5-.4-.9-.1-.9.6-1.7 1.4-1.7.7 0 .8.3 2.7 4.7.3.6.6 1 .8 1 .2.1.3.3.3.5 0 .6.5.7 1 0l.8-.5 2.3-2c2.6-2.3 3.8-3 5-3 .4 0 1 0 1.1-.2h1c.5.2.6.4.6 1s-.1.7-1 .5c-.5 0-.9 0-.9.2 0 0-.5.5-1.1.8-1.1.5-7 5.7-7 6 0 .5.4 1.6.7 2 .2 0 .6.8 1 1.6a52.6 52.6 0 002.8 5c.5.3.8.8.8 1 0 .4 1 1 1.7 1 .8.1 1 .8.5 1.7-.4.5-.6.6-1.6.4l-1.5-.6a9.4 9.4 0 01-2.4-2.7c0-.2-.3-.6-.7-.7-.3-.2-.5-.6-.5-.8 0-.2-.4-1-1-1.7l-.8-1.5c0-.4-1.1-2-1.5-2a35 35 0 00-6.7 6c-.3 0-.5.2-.6.3l-1 1.2c-1 1-1.8 1.9-3.2 3.8l-.7 1.4c-.2.7-.3.8-1 .8-.6 0-.7 0-.9-.5zm25.9 0c-.2-1.7.9-4.5 2.5-6.4l1-1.6 1-1.3c1-1 1.5-1.7 1.6-2.1l.6-.7c.5-.4.5-2 0-3-.9-2-1.3-8.6-.7-10.4.4-1.3 1.8-.7 1.7.7 0 .4 0 .8.2.8l.2 2c0 2.2.9 5.8 1.5 6.3.3.3 1-.1 2.7-2a46.7 46.7 0 011.7-2c0-.4 1.2-1.1 2.4-1.6 1.6-.6 1.8-.6 1.9.1v.6l.1-.6c.1-.8.6-.6.5.2 0 1-.3 1.5-.7 1.5-.5 0-2.2.8-2.5 1.1-.3.5-2 2.3-3.4 3.6l-1.5 1.8c-.3.7-.3.8.3 2.3.4 1 .8 1.7 1 1.7l.1.4c0 1 3.4 5.6 4.5 5.9.4 0 .5.3.5.7 0 1.3-1.3 1.4-3.2.3-1.2-.6-3-2.5-3-3L97 70c-.3-.3-.5-.6-.5-.8 0-.2-.1-.5-.3-.6-.2-.2-.3-.6-.3-.8 0-.2-.2-.5-.4-.6-.2 0-.3-.4-.3-.6 0-.3-.1-.6-.4-.8-.3-.1-.6 0-1.4.8L92 68.3l-1 1.4c-.3.3-.6.8-.6 1 0 .3-.3.6-.5.9-.5.3-1.6 3-1.8 4.2 0 .3-.3.5-.9.5-.7 0-.7 0-.8-1zm94.5 4.2c-.2-.6 0-3 .5-11.2l.8-11.6a7 7 0 00-.1-2.2c-.4-1.2 0-1.9.8-1.6.5.1.7 0 1.4-1 1.2-1.6 2-2 3.7-1.7l2.6.8 2.2.7 1.8.7a5 5 0 001.4.6l1.2.4a201 201 0 007 3.4c.3.1.8.6 1 1l.4.8c.3 0 1-.7 2-2 1.6-2 3.7-3.3 5-3.2.8 0 3 1.4 3.3 2l.6 1c.2.1.5.8.7 1.4.3.6.6 1.3.9 1.6l.3.9c-.1.2-.2.2-.2-.1 0-.6-.5-.5-.9.2-.1.3-.4.5-.5.5-.4 0-1-.7-1-1.2 0-.2-.4-1-.9-1.7-1-1.5-2.4-2.3-3.2-1.9a9 9 0 00-2.6 2c0 .2-.3.5-.6.6-.2.2-.5.4-.5.6l-.4.8c-.9.9-2.2 3.4-2.5 4.8a13.5 13.5 0 000 4.4l.7.7c1.2.7 2.7.4 4.1-.7l1.5-.9A11 11 0 00214 66l.6-.6.2-.4c0-.6 2.1-2.2 2.8-2.1 1.3 0 1.6.7 1.8 3.6.1 1.2.4 2.6.6 3.1.8 2 1.5 2.3 2.7 1.7.6-.4 1-.3 1 .3 0 .5-1.7 2-2.2 2-1.4-.1-3.8-2.2-3.8-3.3 0-.2 0-.4-.2-.5-.5-.3-.5-3.7 0-5v-1c-.2 0-2.5 2-2.5 2.4 0 .3.3.2 1-.4.6-.5.8-.5.8-.3s-1 1.3-2.1 2.3a23 23 0 00-2.4 2.6c-.5.7-1.5 1.3-3 2l-1.8.7c-.6.2-2.5-.2-3.3-.7-.7-.5-1.6-1.6-1.6-2l-.3-1.2c-.3-.8-.3-1 .2-3.2.3-1.3.8-2.8 1.2-3.4.3-.6.6-1.3.6-1.6l.5-1c.2-.3.4-.5.3-.6-.8-.6-1.4-1-1.8-1-.2 0-.5 0-.7-.2-.2-.2-1.8-.8-3-1l-2.8-1-2.2-.9-3.3-1.1c-2.6-1-4.6-1.5-4.9-1.2l-.8 1.3c-.7 1.3-.8 1.5-1.3 7a258 258 0 00-1 16.6c.1 1.8-.1 2.3-1.4 2.4-.8.1-1 0-1.2-.6zm31.1-25c.1 0 0-.2 0-.2-.2 0-.3.1-.3.3v.2c.1 0 .3 0 .3-.2zm21 19.2a8 8 0 01-1.3-1l-1.2-.6c-.2 0-.7-.5-1-1l-.8-1-.4-.9-.6-1.3c-.5-1.3.2-9.2 1-9.7l.4-.7c0-.3.3-.4.7-.4.5 0 .6.1.5.6-.7 4.2-.8 5.8-.5 7.6.1 1 .4 1.9.5 2 .1 0 .2.1.2.4 0 1 .8 2.2 2.4 3.1 2.3 1.3 5.5.4 6.6-1.7l1.2-1.6.8-1c0-.2.2-.5.4-.6.2 0 .4-.6.5-2 .1-2 1-4.7 1.5-5.1.2-.2.7-.2 1-.1l.7.1-.2 2c-.2 1-.4 2.3-.6 2.7-.8 1.6.2 6.1 1.6 7 .5.4 3.1-.7 3.3-1.3l1-1.1c.6-.4 1-.8 1-1 0 0 .2-.3.5-.3.2 0 .5-.3.5-.6 0-.2.2-.6.4-.7.2-.2.4-.6.4-1s.3-1 .6-1.4l.7-1.4c.2-.9 1.2-1.7 1.8-1.5.7.3 1 .8 1.7 2.5.2.8.6 1.6.8 1.7l.2.5c0 .6 2.6 4.2 3.2 4.3 1 .1 1.2.2 1.7.4.6.2 2.7-.2 2.7-.5l.3-.2c.2 0 .6-.2 1-.6 2-1.9 2.5-2.1 2.7-1.4 0 .3-.2.6-.4.8l-.4.5c0 .2-.6.8-1.3 1.6-1.7 1.6-3.7 2.5-5 2.2a9.8 9.8 0 01-4.3-2.4l-1-1c-.1 0-.6-.8-1-2-.7-1.5-1-2.2-.8-3l-.1-1c-.3-.1-2.4 2.6-2.4 3 0 .2.1.4.3.5.2.1.2.2-.1.5a7 7 0 00-.8 1.2 13 13 0 01-5 4.7c-1.9.8-2.6.7-3.9-.2-.6-.5-1.2-1-1.2-1.3 0-.2-.2-.4-.3-.4-.1 0-.3-.5-.3-1-.1-.7-.2-1-.5-.9-.2.1-.3.2-.3.4 0 .7-3.4 4.1-4 4.1-.3 0-1 .1-1.4.3-1 .5-2.8.6-3.6.2zm50.4 1.5c-1.3-.3-2.7-.8-2.7-1l-.6-.3-1.2-.7-1.3-1c-.3-.2-.6-.5-.6-.7 0-.1-.2-.7-.7-1.2l-1.7-2.1L273 66a23 23 0 01-3-8.3l-.4-2a45 45 0 01-1.1-7.7l-.2-2.8v-6.2c-.1-2.8 0-4.4.1-5.3.2-.7.3-1.3.1-1.4-.3-.4.1-1.5.6-1.5.5-.1 1 0 1 .3l-.5.3c-.3 0-.5.3-.5.6 0 .5 0 .5.5.3l.8-.5v1.3l.1 5.8a1340.6 1340.6 0 01.8 11.8l.6 3.7a30.2 30.2 0 003.2 9.8c.3 0 1.9-2 2-2.5 0-.1.3-.6.8-1.1a14 14 0 001.5-2c.7-1.3 1.3-1.5 1-.6-.2 1 .2.8 1-.3l1-.9.3-.3c0-.5 2.7-3 3.4-3.2 1-.3 2.3.1 3.2 1.1l.9.9 1 1.1 1 1.2s.2-.9.2-1.9a86.8 86.8 0 011.7-14c.3-1.4.5-1.9.9-2 .3 0 .4-.2.4-.8l-.1-1v-.5c0-.3 0-.4-.4-.3-.5.2-.6.1-.5-.4.2-.7 1-.8 1.6-.1.5.6.6 4.3.3 5.6a81.6 81.6 0 00-1.2 23.2l.4 1.2c.3 1.3 1.7 4.4 2 4.8.2.2.6.3 1 .3.7-.2 2.4-1.3 2.4-1.7 0-.2.2-.3.4-.3s.5-.1.5-.3c.3-.5 1.6-1.8 1.9-1.7.2 0 .3-.2.3-.4s.2-.4.4-.4c.2-.1.4-.3.4-.5s.2-.5.4-.6c.2-.2.4-.6.4-1s.2-.8.4-.8c.2-.1.4-.3.4-.5s.3-.6.6-.8l.8-1 1-.5c.9-.1 1.2.2 1.4 1.5.4 2.9 1.6 5.5 3.1 7.3 1 1 1.2 1 2 .4.4-.2.7-.3.8-.2.2.4-.4 2-.9 2.4-.6.4-1.8.3-2.5-.3a10 10 0 01-2.5-2.9l-.4-.8a9.5 9.5 0 01-1.3-4.4v-1l-.6.6c-.9.7-3 3-3 3.4 0 .1.3.2.6.1.5 0 .5 0-.1.6-.4.4-.8.8-.8 1l-.4.5c-.7.6-1.1 1.1-1.1 1.4a14 14 0 01-3.8 3 3 3 0 01-3.5-.7 3 3 0 01-.6-1l-.3-.6a8.7 8.7 0 01-1.4-3.2c0-.9-.7-.5-.9.4l-.3 1.6c-.4 1.6-1.3 3.1-2.7 4.2l-1.3 1h-2.1l-2.8-.3zm4.6-2.4c.4-.1.7-.5.8-.8l.5-1.1a25 25 0 001.3-8.7c0-1.5 0-1.8-1-4.3-.9-2-2-3-3-2.7l-1 .2c-.8 0-2 1.1-3.5 3a19 19 0 00-3 4 14 14 0 01-3 4.1c-1 .7-1 .9-.4.9.3 0 .6.2.6.5.1.3.3.5.5.5s.4.3.4.6c0 .4.4.7.6.8.3.1.5.3.5.5 0 .5 1.9 1.6 3 1.9l1.4.4c.5.6 4 .7 5.3.2zm-11.1-3.5l-.3-.3-.2.1c0 .2 0 .3.2.3l.3-.1zm56.7 7c-2.6-1-3.8-2.9-4-6 0-.8-.6-1-.7-.4 0 .6-2.8 3-3.4 3-.2 0-.4.1-.4.3 0 .2-.5.2-1.3 0-1.3 0-1.5-.2-3-1.7l-1.6-2-.3-1-.6-1.3c-.2-1.1-.2-7 .1-7 .1 0 .3-.4.3-.8s.2-.9.6-1.2c.5-.4.6-.7.6-1.3 0-.4.3-.4.8 0 .4.3.4.5 0 1-.3.6-.5 4.1-.4 6.8 0 1.8.8 3.7 2 5 1.1 1.4 1.7 1.6 3 1 1-.6 2.2-2 2.3-2.5 0-.1.2-.4.5-.5.2-.1.5-.4.5-.7 0-.3.1-.5.3-.5l.2-.4c0-.6 1-1.5 1.5-1.4.3.1.4.4.4.8s.1.8.3 1c.1 0 .3 1 .3 2 0 .9.2 2 .3 2.4.2.3.3.7.2.7-.2.2.5 1.8 1 2.6.3.3.7.5 1.8.5 1.2 0 1.3.1 1.3.6s-.2.6-.7.6c-.4 0-.8.1-1 .3 0 .4-.2.4-1 0zm262.3 10.4l-.7-.4a6 6 0 01-3-1.4 3 3 0 00-1-.7l-.4-.5c-.3-.7.4-1 1.4-.5l2.8.9c2 .5 2.2.5 3.4.1a6 6 0 002-1l1-.7c.3 0 .6-.2.9-.5.3-.4.6-.6.8-.6l.3-.2c0-.2.3-.8.8-1.5.9-1.2 1-2.4.8-4a57 57 0 00-6-7c-.3 0-1.1-1.2-1.7-2.3a11 11 0 01-1.6-6.9c.1-1.1.2-1.4.6-1.5.3 0 .7-.3.9-.7.4-.6 2.3-1.5 3.5-1.7 1.4-.2 4.8 1.3 4.3 2h-2c-1.3-.1-2 0-2.9.3-1.2.4-2.4 1.4-2.5 2a8 8 0 00.6 3.9c.6 1.5 1 2 3 4.2a53.8 53.8 0 004.3 4.2l.7 1c2 2.3 2 5.6 0 8.4-.6 1-2.8 3.2-3.2 3.2-.1 0-.4.1-.5.3-.2.2-1 .7-1.8 1-1.7 1-4.2 1.3-4.8.6zM387.3 75.1c-.6-.4-.7-1.8-.6-4.8l.2-3.3v-2.4l.1-5.8c.2-3.7.2-3.7.8-4.2.7-.5 1.3-.5 2.4.2.4.3 1 .5 1.2.5l.6.3 1.7 1c1.9 1.1 4 1.4 6.5.9 2-.4 2.8-.5 2.8-.1 0 .9-1.2 1.5-3.9 2.3-2.2.6-5.4 0-7.4-1.4-.9-.6-1.8-.7-1.5-.1 0 .1 0 .2-.3.2-.5 0-.5.4 0 .8.7.4.7.7.1.6-.4 0-.4.5-.8 7.4-.5 7.5-.6 8.2-1.4 8.1-.1 0-.4 0-.5-.2zm157 7.9c-.3-.2-.5-.5-.6-.8 0-.3-.3-.8-.6-1.2l-.4-1c0-.2-.2-1-.6-1.9a33.2 33.2 0 01-1.7-5 13 13 0 01-.5-2c0-.5-.2-1.2-.4-1.6l-.6-2.3-.6-3.5-.3-1.9h-2.6a39 39 0 01-3.2-.3c-.8-.2-1.2-.8-1-1.5.2-.4.4-.5 1.5-.4 1.5 0 4.6-.2 4.8-.5a117.1 117.1 0 01-.2-14l.3-7.4c-.4-9.3 2.8-5.4 1.6-3.7-.3-.1-.4 0-.4.2s.2.4.4.4c.3 0 .5.2.5.5v14c0 4.6.2 9.1.4 9.4.2.4 1.2.3 2 0 .4-.2 1-.3 1.3-.3l2-.4a19.7 19.7 0 019.7.2c.6.1 1 .3 1 .6l.6.8c.3.1.6.6.8 1l1 2.1c.4 1 .5 1.8.6 3.7 0 4.2.3 6.3.7 7.7.8 2.4.3 4-1 3.4-.3-.2-.7-.6-.9-1-.4-1-1.2-7-1.2-9.6 0-3.2-.9-5.3-2.7-6.7-.7-.5-1-.6-2.5-.6-2.7 0-10.6 1.6-11 2.1-.3.3-.1 2.3.2 3 0 .2.2.7.1 1.2 0 .9.3 2.2.7 3 .2.2.3.6.3.9l.4 1.6.7 2.6a21 21 0 001.4 4.4c.3.7.7 1.6.7 2l.5 1c.4.7.3 1.8-.2 2a2 2 0 01-.4.1l-.6-.3zm-119.1-9a9.9 9.9 0 01-1.8-2l-1.1-2c-.7-.8-1.6-3.1-1.5-3.9 0-.2-.2-.6-.5-.9l-.4-.2-.6.7-.7 1.1a36 36 0 01-4.7 6c-1.6 1.5-2.3 1.5-3.8 0a9.2 9.2 0 01-1.4-2.3 33.9 33.9 0 01-.3-16.7c.6-.6 1.2-.6 1 0v.5c.3 0 .4 2.8.3 6.7v4a18 18 0 001.2 4.4c0 .6 1 1.8 1.4 1.9.2 0 .4-.1.4-.3 0-.1.3-.5.7-.8l.6-.8 1.4-1.5a7 7 0 001.4-1.6c0-.3 2-3.4 3-4.7.4-.4.7-1.3.9-2 .3-1.5 1.3-3.6 1.8-3.7 1-.4 1.1 1.7.3 4-.5 1.1-.4 4.5.2 6a24 24 0 003 5.9c1.2 1.4 1.8 1.3 3.5-.2 2.6-2.4 3-2.7 3.1-2.7l.2.8c0 .6-.3 1.1-1 1.7-.5.5-.9 1-.9 1.2 0 .4-1.6 1.7-2 1.7l-.7.3c-.6.6-1.9.4-3-.5zm12.2.6c-.8-.5-2.3-3-2.3-3.7 0-.2 0-.4-.2-.5l-.2-.6a1 1 0 00-.3-.8c-.2-.1-.3-.4-.2-.6l-.1-.9a31 31 0 01-.7-7.2c0-1.8 0-2.7.4-3.5l.3-1.3c-.2-.5.7-2 1-2 .5 0 .8.8.6 1.6a37.3 37.3 0 00.2 10.2c.2 2 .7 3.4 2 6l.6 1.1 1-.8 1.3-1.9L442 68l.7-1.2c0-.2.1-.5.3-.7.3-.2.7-1.2 1.9-4a1772.6 1772.6 0 012.3-5.9c.2-.6 1-.4 1.2.2l.4.7c.2.2.3 1.6.2 6.8 0 3.1 0 3.4.8 5.1l.9 1.8 1-1 .9-1 .5-.9c.3-.4.7-.9 1-1a3 3 0 001-1.3l.7-1.3.8-1.5c.3-.6.6-1.3.8-1.4l.4-.7 1.2-2.1 1.2-2c0-.2.3-.5.5-.7.5-.3.6-.3 1.2 0 .4.1.8.6 1 1 .5 1.6 1.2 4.5 1.2 5.2 0 .3.2 1.4.5 2.3.8 2.6 1 3 1.3 3.1l.7.7c.6.7 1.7.8 2 .3.2-.6.6-.4.4.3-.7 2.4-4 1.6-5.3-1.1L463 66c-.5-.7-1.2-4.4-1.4-6.4 0-1.7-.5-1.9-1.3-.4-.3.6-.7 1.2-1 1.4 0 .2-.7 1-1.2 1.8-.6 1.1-.8 1.6-.6 2 .1.2 0 .6-.4 1.4-.3.6-.7 1.1-.8 1.1l-.8 1.2a8 8 0 01-.9 1.4l-1.3 1.5c-1 1.4-2.3 2.2-3.2 2.1-.7 0-2-1.5-2.2-2.5 0-.4-.2-.7-.3-.8-.2 0-.6-1.6-.7-3.2 0-1.2 0-1.4.4-1.5.3 0 .3 0 0-.1-.5 0-1-1.9-.5-2.5.2-.4.2-.5-.1-.5-.4 0-.5.3-.5 1l-.3.8a3 3 0 00-.5 1.4 5 5 0 01-.7 1.9l-1.4 2.5c-1.3 2.4-3 4.5-4.3 5-.8.4-.6.4-1.6-.1zm18.2-7.9l-.4-.2c-.4 0-.5.2-.2.5.2.2.5 0 .6-.3zM570 81c-.8-.5-2-1.9-2-2.2 0-.2-.1-.4-.3-.5-.2-.1-.8-1.4-1.3-3a13.2 13.2 0 00-1.5-3l-.4-.5a1 1 0 01-.6-.6l-.5-1.7a8.4 8.4 0 01-.1-4.8 9.3 9.3 0 012.3-4.8c.6-.6 1.2-1.3 1.3-1.6.3-.5.7-.7 2.5-1.6 1.6-.7 3.2-1.1 4-1 .8.3 2 1 2.3 1.6.1.2.4.4.6.4.2 0 .3.2.3.4s.2.5.4.6c.5.5 1 2 .8 2.7 0 .4 0 .7.5 1 .3.2.5.5.4.7 0 .2 0 .4.2.5.5.2 1 1.6 1 2.6 0 .4 0 .7.2.7l.3-1.6c0-1 .2-2 .5-2.3.2-.3.3-.8.2-1 0-.4 0-.6.2-.7.2-.1.3-.4.3-.6a9 9 0 012-3.4c.8-.3 1.7.9 1 1.2-.3.2-1.3 3.2-1.7 5.3-.6 3 0 6.5 1.2 7.5.7.7 4.7.7 5.2 0 .3-.4 3-.4 4 0 .7.2.9.4.8.9 0 .5 0 .6-.6.4-.6-.1-3.9.6-4.9 1.2-.8.4-2 .6-3.6.5-1-.1-1.5-.3-2.2-1-.8-.7-2-2.9-2-3.7.1-.1 0-.2-.2 0-.1 0-.2.4-.2 1 .1.8-.6 2.7-1.1 3-.2 0-.3.6-.3 1.3 0 1-.2 1.4-1 2.5a9.4 9.4 0 01-3.6 3.4c-1.2.5-3.8.6-4.4.2zm3.7-2.7a99.4 99.4 0 012.5-2.5c0-.2 0-.3.2-.3s1-1.5 1.7-3.4c1-2.9.6-6.8-1.2-10.2l-.6-1.4c-.8-1.6-1.8-2.6-3-2.8-.8-.2-1.2-.1-2.6.6-.9.4-2.1 1.2-2.7 1.8-1 1-1 1.2-1 1.8l.2 4.3c0 4.4.1 5.1.7 6 .5.6.7.7 2 .8h2c.6-.2.8.1.4.6-.3.4-2.2 1-3 1-.8 0-.8.7 0 1.6l.5 1c0 .2.3.6.7.9 1 .7 2.6.8 3.2.2zm-8.7-12c-.1-1.3-.4-.5-.3 1 0 .9 0 1 .2.7.1-.3.2-1 .1-1.6zm-90.7 7.5a9 9 0 01-1-2.2l-.9-2.3c-.3-.7-.3-1.5-.2-4.4.3-4 .7-6 1.7-7.3.8-1 1-1.2 1.3-.8.3.4 0 2.4-.4 2.8-.2.2-.5 5.1-.5 7.6 0 .9.2 2 .4 2.4l.5 1.7c.4 1.2.9 1.3 1.5.4.5-.7.5-.7.7-.3.3.6 0 2.1-.6 2.7-.7.8-1.8.6-2.5-.3zm9 0c-.8-.7-2-3-2-4l-.2-1a20.5 20.5 0 01.8-6.5l.5-2 .3-1c.5-1.5.8-2 1.8-2.7 1-.7 1.8-.8 1.2-.1-.2.2-.2.4 0 .5.2.1.1.3-.1.6-.2.2-.7.8-1 1.4-1.1 2-1.8 10-1 11 .3.3.5.7.6 1 .4 1.4 1.7 1 4.1-1l1.9-1.5 1.4-1.7a50.7 50.7 0 013.5-4.3c0-.2.5-.8 1.2-1.5l1.2-1.5c0-.4 1.1-.8 1.6-.6.7.2 1 1.2 1 3.8l.1 2.6c0 1.9 1 6 1.5 6l.9.8c.6.7.9.8 2 .8 1.6.1 1.8.6.6 1.3-1.8 1-3.5.5-5-1.3-.8-.9-1.5-2.2-1.2-2.2l-.2-.4c-.4-.5-.6-2-.7-5.4 0-1.6-.2-3-.2-3-.2-.2-1 .8-1.8 2-.4.7-.8 1.2-1 1v.3c0 .4-1.3 2.6-1.7 2.5a24.7 24.7 0 01-6.2 5.9c-.5.3-1.4.6-2 .7-.9 0-1.2 0-1.8-.6zm11.1-7.9c.4-.3.5-.5.3-.5-.3 0-.7.2-2.2 1.2v.4c.2.2.5 0 2-1.1zm32.2 7.5l-1-.6c-1.5-.6-3.1-2.2-4.2-4.4l-1.3-2.1c-.4-.2-2.8.6-4 1.2-2.8 1.5-3.9 2-5.6 2.2-1.2.1-1.5 0-2.3-.4-1.1-.6-1.7-1.8-1.4-3.3.4-2.9 3.8-8 5.3-8 .3 0 .5.2.5.4 0 .3.2.3.7.2.8 0 2.6 1 3 1.8.3.4.2.5-.4.7-.6.2-.9.2-1.4-.2-1-.5-1.4-.5-2.6.3a6.7 6.7 0 00-2.6 3.6l-.4 1.7-.2.8h1c1.3.1 3-.3 4.7-1.2a93 93 0 012.4-1c1.9-.8 2.3-1 3.3-.8.9.2 1.4.4 1.6.7l.6.9.3.6.8 1.3c.5.7.8 1.4.8 1.5 0 .3 1.7 1.9 2 1.7l.4.1a9 9 0 002.9 1.2c.2 0 .4.2.4.5 0 .7-3 1.2-3.3.6zM513 59.3V59l-.3.3c-.1 0 0 .2 0 .2.2 0 .3 0 .3-.2zm-402-9c-.5-4.1.6-8.5 3.6-13.9 1.7-3 2-3.4 3.5-3 1 .2 1 1.1 0 1.6-.4.1-.8.4-.8.5l-.8 1.7a38.8 38.8 0 00-3.7 10.2c-.5 2.8-.7 3.5-1.3 3.5-.2 0-.4-.3-.4-.6zm-55.3-4.9l-1.2-.7c-1.1-.5-1.6-.9-1.6-1 0-.2-.2-.3-.3-.3-.5 0-1.1-.8-1-1.3 0-.2.1-.5.4-.7.5-.5 1.3-.5 1.3-.1 0 0 .1.2.4.2.2 0 .6.4 1 .8.3.4.6.8.8.8.2 0 .4.2.6.6l.4.7c.1 0 .3.4.3.8.2.7-.2.8-1 .2zm256.1 8c0-.2-.1-.3-.3-.3-.6 0-1-.7-.6-1.4s.8-.6 2.3 0c.6.4.8 1.2.1 1-.1 0-.3.2-.4.5-.2.4-1.1.6-1 .2zm1-.7c0-.2-.1-.3-.3-.3-.2 0-.3.1-.2.4 0 .3.5.3.5-.1zm245.4 2c-.5-.8-.2-1.3 1.1-1.5 1.3-.2 2 .1 1.8.7-.2.5-1.2.8-1.7.6-.2-.1-.3 0-.4.2 0 .5-.3.5-.8 0zm-80.2-7c-1.7-1.5-2.2-2.6-1.5-3.3.5-.5 1-.5 1.7 0 .6.5.7 1 .2.9-.2 0-.4.1-.4.4 0 .2.1.3.3.3.5-.2 1.5 1.3 1.5 2 0 .5-1.1.2-1.8-.3z"/>
  <path fill="none" stroke="#000" stroke-opacity=".3" stroke-width="1.066664" d="M15.4 84.1h594"/>
</svg>
